<?xml version="1.0" encoding="utf-8"?>
<!-- Generator: Adobe Illustrator 22.1.0, SVG Export Plug-In . SVG Version: 6.00 Build 0)  -->
<svg version="1.1" id="Capa_1" xmlns="http://www.w3.org/2000/svg" xmlns:xlink="http://www.w3.org/1999/xlink" x="0px" y="0px"
	 viewBox="0 0 612 612" style="enable-background:new 0 0 612 612;" xml:space="preserve">
<g>
	<path d="M562.5,70.5c-30.3-30-73.9-49.2-119.8-49.2c-27,0-52.4,6.2-76.8,18.6c-24.4,12.4-44.3,29.3-59.9,50.8
		c-15.6-21.5-35.5-38.4-59.9-50.8c-24.4-12.4-49.8-18.6-76.8-18.6c-45.9,0-89.5,19.2-119.8,49.2C19.2,100.4,0,144,0,189.9
		c0,31.6,6.7,62.2,15,85.3c4.1,11.4,10.3,23.8,18.6,36.5c8.3,12.8,16,23.4,22.5,31.9c6.5,8.5,15.8,19,28.3,31.3
		c12.5,12.2,22.8,21.8,30.3,28.6c7.5,6.8,18.9,16.9,33.9,30c17.2,15,29.5,26.1,37.4,33.2c7.7,6.9,18.9,17.6,33.5,31.6
		c29.6,28.3,51.4,54.4,71.9,84.3c3.8,5.6,8.8,8.1,14.6,8.1c6.2,0,11.5-2.5,15.3-8.1c13.2-19.8,28.4-40,46.2-59.9
		c18-20.1,33-35.7,44.9-46.9c12.1-11.3,29.6-27.1,52.1-47.2c13.9-12.4,25.1-21.8,32.6-28.6c7.5-6.8,17.3-16.3,29.3-28.3
		c12-12,21.6-22.4,28.3-30.9c6.9-8.7,14.2-19.3,22.5-31.9c16.8-25.8,24.2-46.2,30.3-74.9c3-14.3,4.6-29,4.6-43.9
		C612,144,592.8,100.4,562.5,70.5z"/>
</g>
</svg>
